# xmcd CD database file
#
# Track frame offsets:
#	167
#	9110
#	21217
#	29692
#	50717
#	59537
#	75555
#	88262
#	101832
#	114127
#	126372
#	137152
#	149167
#	157740
#	167770
#	179187
#	192855
#	201240
#
# Disc length: 3046 seconds
#
# Revision: 4
# Processed by: cddbd v1.5.2PL0 Copyright (c) Steve Scherf et al.
# Submitted via: CDex 1.51
#
DISCID=050be412
DTITLE=Odetta - The Best of Odetta: Ballads and Blues
DYEAR=1994
DGENRE=Blues
TTITLE0=He's Got The Whole World In His Hands
TTITLE1=Lowlands
TTITLE2=The Fox
TTITLE3=Lass Of The Los Countree
TTITLE4=Devlish Mary
TTITLE5=Take This Hammer
TTITLE6=Greensleeves
TTITLE7=Deep River
TTITLE8=Chilly Winds
TTITLE9=If I Had A Ribbon Bow
TTITLE10=Shame And Scandal
TTITLE11='Buked And Scorned
TTITLE12=Joshua
TTITLE13=Glory, Glory
TTITLE14=Been In The Pen
TTITLE15=Deep Blue Sea
TTITLE16=God's Gonna Cut You Down
TTITLE17=Spiritual Triology
EXTD=YEAR: 1994
EXTT0=
EXTT1=
EXTT2=
EXTT3=
EXTT4=
EXTT5=
EXTT6=
EXTT7=
EXTT8=
EXTT9=
EXTT10=
EXTT11=
EXTT12=
EXTT13=
EXTT14=
EXTT15=
EXTT16=
EXTT17=
PLAYORDER=
